REM DIRINDEX 1\2,1\3,1\4,1\5
REM DIRNAME cjc093,folder01,folder02,folder03,folder04
TITLE ""
FILE "Round-09-204-205.mp3" MP3
  TRACK 01 AUDIO
    TITLE "0:"
    INDEX 01 00:00:00
  TRACK 02 AUDIO
    TITLE "2:cjc093_2257"
    INDEX 01 00:00:01
  TRACK 03 AUDIO
    TITLE "0:"
    INDEX 01 00:01:03
  TRACK 04 AUDIO
    TITLE "3:cjc093_2258"
    INDEX 01 00:01:38
  TRACK 05 AUDIO
    TITLE "0:"
    INDEX 01 00:03:17
  TRACK 06 AUDIO
    TITLE "4:cjc093_2259"
    INDEX 01 00:03:49
  TRACK 07 AUDIO
    TITLE "0:"
    INDEX 01 00:06:06
  TRACK 08 AUDIO
    TITLE "3:cjc093_2260"
    INDEX 01 00:07:17
  TRACK 09 AUDIO
    TITLE "0:"
    INDEX 01 00:08:73
  TRACK 10 AUDIO
    TITLE "4:cjc093_2261"
    INDEX 01 00:09:36
  TRACK 11 AUDIO
    TITLE "0:"
    INDEX 01 00:12:60
  TRACK 12 AUDIO
    TITLE "2:cjc093_2262"
    INDEX 01 00:14:00
  TRACK 13 AUDIO
    TITLE "0:"
    INDEX 01 00:15:38
  TRACK 14 AUDIO
    TITLE "3:cjc093_2263"
    INDEX 01 00:16:02
  TRACK 15 AUDIO
    TITLE "0:"
    INDEX 01 00:17:72
  TRACK 16 AUDIO
    TITLE "4:cjc093_2264"
    INDEX 01 00:18:11
  TRACK 17 AUDIO
    TITLE "0:"
    INDEX 01 00:20:63
  TRACK 18 AUDIO
    TITLE "2:cjc093_2265"
    INDEX 01 00:21:74
  TRACK 19 AUDIO
    TITLE "0:"
    INDEX 01 00:23:06
  TRACK 20 AUDIO
    TITLE "3:cjc093_2266"
    INDEX 01 00:23:40
  TRACK 21 AUDIO
    TITLE "0:"
    INDEX 01 00:24:69
  TRACK 22 AUDIO
    TITLE "4:cjc093_2267"
    INDEX 01 00:25:23
  TRACK 23 AUDIO
    TITLE "0:"
    INDEX 01 00:28:21
  TRACK 24 AUDIO
    TITLE "2:cjc093_2268"
    INDEX 01 00:29:31
  TRACK 25 AUDIO
    TITLE "0:"
    INDEX 01 00:30:36
  TRACK 26 AUDIO
    TITLE "3:cjc093_2269"
    INDEX 01 00:30:71
  TRACK 27 AUDIO
    TITLE "0:"
    INDEX 01 00:33:42
  TRACK 28 AUDIO
    TITLE "4:cjc093_2270"
    INDEX 01 00:33:68
  TRACK 29 AUDIO
    TITLE "0:"
    INDEX 01 00:35:74
  TRACK 30 AUDIO
    TITLE "2:cjc093_2271"
    INDEX 01 00:37:08
  TRACK 31 AUDIO
    TITLE "0:"
    INDEX 01 00:38:22
  TRACK 32 AUDIO
    TITLE "3:cjc093_2272"
    INDEX 01 00:38:63
  TRACK 33 AUDIO
    TITLE "0:"
    INDEX 01 00:40:58
  TRACK 34 AUDIO
    TITLE "4:cjc093_2273"
    INDEX 01 00:41:14
  TRACK 35 AUDIO
    TITLE "0:"
    INDEX 01 00:44:36
  TRACK 36 AUDIO
    TITLE "3:cjc093_2274"
    INDEX 01 00:45:49
  TRACK 37 AUDIO
    TITLE "0:"
    INDEX 01 00:47:25
  TRACK 38 AUDIO
    TITLE "4:cjc093_2275"
    INDEX 01 00:47:62
  TRACK 39 AUDIO
    TITLE "0:"
    INDEX 01 00:51:34
  TRACK 40 AUDIO
    TITLE "2:cjc093_2276"
    INDEX 01 00:52:43
  TRACK 41 AUDIO
    TITLE "0:"
    INDEX 01 00:53:55
  TRACK 42 AUDIO
    TITLE "3:cjc093_2277"
    INDEX 01 00:54:21
  TRACK 43 AUDIO
    TITLE "0:"
    INDEX 01 00:55:69
  TRACK 44 AUDIO
    TITLE "4:cjc093_2278"
    INDEX 01 00:56:08
  TRACK 45 AUDIO
    TITLE "0:"
    INDEX 01 00:58:46
  TRACK 46 AUDIO
    TITLE "2:cjc093_2279"
    INDEX 01 00:59:53
  TRACK 47 AUDIO
    TITLE "0:"
    INDEX 01 01:01:66
  TRACK 48 AUDIO
    TITLE "3:cjc093_2280"
    INDEX 01 01:02:46
  TRACK 49 AUDIO
    TITLE "0:"
    INDEX 01 01:04:66
  TRACK 50 AUDIO
    TITLE "4:cjc093_2281"
    INDEX 01 01:05:09
  TRACK 51 AUDIO
    TITLE "0:"
    INDEX 01 01:07:61
  TRACK 52 AUDIO
    TITLE "2:cjc093_2282"
    INDEX 01 01:08:68
  TRACK 53 AUDIO
    TITLE "0:"
    INDEX 01 01:10:06
  TRACK 54 AUDIO
    TITLE "3:cjc093_2283"
    INDEX 01 01:10:51
  TRACK 55 AUDIO
    TITLE "0:"
    INDEX 01 01:13:16
  TRACK 56 AUDIO
    TITLE "4:cjc093_2284"
    INDEX 01 01:13:32
  TRACK 57 AUDIO
    TITLE "0:"
    INDEX 01 01:17:51
  TRACK 58 AUDIO
    TITLE "3:cjc093_2285"
    INDEX 01 01:18:58
  TRACK 59 AUDIO
    TITLE "0:"
    INDEX 01 01:21:00
  TRACK 60 AUDIO
    TITLE "4:cjc093_2286"
    INDEX 01 01:21:35
  TRACK 61 AUDIO
    TITLE "0:"
    INDEX 01 01:25:21
  TRACK 62 AUDIO
    TITLE "2:cjc093_2287"
    INDEX 01 01:26:30
  TRACK 63 AUDIO
    TITLE "0:"
    INDEX 01 01:27:46
  TRACK 64 AUDIO
    TITLE "3:cjc093_2288"
    INDEX 01 01:28:16
  TRACK 65 AUDIO
    TITLE "0:"
    INDEX 01 01:29:72
  TRACK 66 AUDIO
    TITLE "4:cjc093_2289"
    INDEX 01 01:30:30
  TRACK 67 AUDIO
    TITLE "0:"
    INDEX 01 01:33:52
  TRACK 68 AUDIO
    TITLE "3:cjc093_2290"
    INDEX 01 01:34:61
  TRACK 69 AUDIO
    TITLE "0:"
    INDEX 01 01:35:67
  TRACK 70 AUDIO
    TITLE "4:cjc093_2291"
    INDEX 01 01:36:23
  TRACK 71 AUDIO
    TITLE "0:"
    INDEX 01 01:39:27
